<svg width="115" height="116" xmlns="http://www.w3.org/2000/svg" xmlns:xlink="http://www.w3.org/1999/xlink" overflow="hidden"><defs><clipPath id="clip0"><rect x="-503" y="-132" width="115" height="116"/></clipPath></defs><g clip-path="url(#clip0)" transform="translate(503 132)"><path d="M39.5312 46.7188C36.8958 46.7188 34.7396 44.5625 34.7396 41.9271 34.7396 40.25 35.6979 38.6927 37.0156 37.8542 37.0156 38.6927 37.1354 39.651 37.1354 40.7292 37.1354 42.0469 38.2135 43.125 39.5312 43.125 40.849 43.125 41.9271 42.0469 41.9271 40.7292 41.9271 39.651 41.9271 38.6927 41.8073 37.7344 43.2448 38.5729 44.3229 40.1302 44.3229 41.9271 44.3229 44.5625 42.1667 46.7188 39.5312 46.7188ZM98.4687 67.3229 64.9271 33.7812C63.9688 32.8229 62.7708 32.3438 61.5729 32.3438L40.9688 32.3438C39.651 28.151 37.1354 25.9948 32.8229 25.1562 31.2656 24.9167 29.9479 24.6771 28.6302 24.4375 21.8021 23.4792 20.3646 23.2396 20.3646 15.5729 20.3646 14.2552 19.2865 13.1771 17.9688 13.1771 16.651 13.1771 15.5729 14.2552 15.5729 15.5729 15.5729 26.8333 20.0052 28.0312 27.9115 29.2292 29.1094 29.4688 30.4271 29.5885 31.9844 29.9479 33.5417 30.3073 35.2188 30.5469 36.1771 33.0625 32.5833 34.5 30.0677 37.974 30.0677 42.0469L30.0677 63.9688C30.0677 65.2865 30.5469 66.4844 31.5052 67.3229L65.0469 100.865C65.8854 101.823 67.0833 102.182 68.2812 102.182 69.4792 102.182 70.6771 101.703 71.6354 100.745L98.349 74.0312C100.266 72.2344 100.266 69.1198 98.4687 67.3229Z" fill="#FFFFFF" transform="matrix(1 0 0 1.0087 -503 -132)"/></g></svg>